<svg viewBox="0 0 100 100" xmlns="http://www.w3.org/2000/svg" xmlns:xlink="http://www.w3.org/1999/xlink" width="100.000000" height="100.000000" fill="none">
	<rect id="勋章 2" width="100.000000" height="100.000000" x="0.000000" y="0.000000" />
	<path id="矢量 22" d="M50.0488 6.15234C71.7573 6.15234 89.3555 23.7532 89.3555 45.465C89.3555 54.4498 86.3418 62.7307 81.2705 69.3515L81.2695 86.2372C81.2695 86.9328 81.1716 87.625 80.9787 88.2934C79.8547 92.1876 75.8164 94.4496 71.9195 93.3926L71.8016 93.3596L54.6344 88.4027C51.8411 87.5962 48.8789 87.5801 46.077 88.3561L45.9125 88.4027L28.7453 93.3596C28.0771 93.5525 27.385 93.6504 26.6895 93.6504C22.6367 93.6504 19.3438 90.3975 19.2783 86.3598L19.2773 86.2372L19.2764 69.9268C13.9344 63.2134 10.7422 54.7119 10.7422 45.465C10.7422 23.7532 28.3403 6.15234 50.0488 6.15234ZM75.4305 75.4839C70.8433 79.3677 65.3539 82.2185 59.3214 83.6776L73.4213 87.7479C74.2556 87.9889 75.1271 87.5077 75.368 86.6733C75.4021 86.5552 75.4222 86.4335 75.4279 86.3108L75.4297 86.2372L75.4305 75.4839ZM25.1165 75.8586L25.1172 86.2372C25.1172 87.1057 25.8211 87.8097 26.6894 87.8097C26.8124 87.8097 26.9349 87.7952 27.0543 87.7667L27.1256 87.7479L41.0223 83.7362C35.0892 82.3418 29.6743 79.6029 25.1165 75.8586L25.1165 75.8586ZM50.0488 11.9932C31.5656 11.9932 16.582 26.9791 16.582 45.4651C16.582 63.9513 31.5656 78.9371 50.0488 78.9371C68.532 78.9371 83.5156 63.9512 83.5156 45.465C83.5156 26.979 68.532 11.9931 50.0488 11.9931L50.0488 11.9932ZM47.4536 28.4065C48.2222 26.8489 50.1077 26.2094 51.6651 26.9781C51.9731 27.1302 52.2541 27.3316 52.497 27.5746C52.7399 27.8175 52.9413 28.0985 53.0933 28.4065L57.4933 37.3234L67.3322 38.7533C69.0276 38.9997 70.2094 40.556 70.0012 42.2483L69.9919 42.3179C69.9425 42.6578 69.8378 42.9874 69.6818 43.2934C69.5259 43.5995 69.3209 43.878 69.0749 44.1178L61.9554 51.0584L63.6361 60.8593C63.9257 62.5478 62.8113 64.1525 61.1385 64.4779L61.0685 64.4906C60.7299 64.5487 60.3842 64.5509 60.045 64.4972C59.7058 64.4435 59.3776 64.3345 59.0736 64.1747L50.2734 59.5474L41.4732 64.1746C39.958 64.9713 38.0891 64.4084 37.2619 62.9197L37.2267 62.8543C37.0668 62.5502 36.9579 62.2221 36.9042 61.8828C36.8505 61.5435 36.8527 61.1977 36.9107 60.8592L38.5913 51.0583L31.4719 44.1177C30.2475 42.9239 30.2039 40.9752 31.36 39.7282L31.415 39.6703C31.6548 39.4244 31.9332 39.2193 32.2392 39.0634C32.5452 38.9075 32.8747 38.8027 33.2146 38.7533L43.0533 37.3233L47.4536 28.4065ZM50.2734 35.8895L46.9316 42.6619L39.459 43.7479L44.8662 49.0194L43.5896 56.4631L50.2734 52.9487L56.9571 56.4631L55.6808 49.0195L61.0877 43.748L53.6153 42.6619L50.2734 35.8895Z" fill="rgb(0,102,255)" fill-rule="nonzero" />
	<path id="矢量 22" d="M81.2705 69.3515C86.3418 62.7307 89.3555 54.4498 89.3555 45.465C89.3555 23.7532 71.7573 6.15234 50.0488 6.15234C28.3403 6.15234 10.7422 23.7532 10.7422 45.465C10.7422 54.7119 13.9344 63.2134 19.2764 69.9268L19.2773 86.2372L19.2783 86.3598C19.3438 90.3975 22.6367 93.6504 26.6895 93.6504C27.385 93.6504 28.0771 93.5525 28.7453 93.3596L45.9125 88.4027L46.077 88.3561C48.8789 87.5801 51.8411 87.5962 54.6344 88.4027L71.8016 93.3596L71.9195 93.3926C75.8164 94.4496 79.8547 92.1876 80.9787 88.2934C81.1716 87.625 81.2695 86.9328 81.2695 86.2372L81.2705 69.3515ZM87.4273 37.0163C88.0461 39.7629 88.3555 42.5791 88.3555 45.465C88.3555 47.9959 88.1151 50.4794 87.6345 52.9155C87.2976 54.6232 86.8425 56.3075 86.2694 57.9686C85.6538 59.7528 84.9152 61.473 84.0537 63.1293C83.0337 65.0903 81.8413 66.9617 80.4766 68.7434L80.2705 69.0125L80.2695 86.2371C80.2695 86.5393 80.2486 86.8385 80.2067 87.1347C80.1648 87.4315 80.1019 87.7252 80.0179 88.016C79.7748 88.8583 79.4014 89.5973 78.8976 90.2329C78.3947 90.8675 77.7618 91.3992 76.999 91.8279C76.2336 92.2581 75.4478 92.5228 74.6416 92.6218C73.8416 92.7201 73.0215 92.6553 72.1813 92.4275L72.071 92.3966L54.9118 87.442C53.3972 87.0046 51.8814 86.7818 50.3644 86.7736C48.8475 86.7653 47.3294 86.9716 45.8101 87.3924L45.6401 87.4406L28.4679 92.3988C28.1765 92.4829 27.8821 92.546 27.5847 92.5879C27.2892 92.6296 26.9908 92.6504 26.6895 92.6504C25.8134 92.6504 25.0004 92.4967 24.2504 92.1892C23.5008 91.882 22.8141 91.4211 22.1904 90.8068C21.565 90.1908 21.093 89.5094 20.7743 88.7626C20.4577 88.0208 20.2923 87.2145 20.2782 86.3436L20.2773 86.2292L20.2763 69.5775L20.0589 69.3042C18.623 67.4997 17.3675 65.5981 16.2924 63.5995C15.3815 61.9063 14.6001 60.1434 13.9482 58.3108C13.3334 56.5826 12.8471 54.8286 12.4893 53.0487C11.9912 50.5709 11.7422 48.043 11.7422 45.465C11.7422 42.5796 12.0515 39.7638 12.6701 37.0177C13.1656 34.8179 13.8596 32.6627 14.7521 30.5523C15.6607 28.4038 16.7447 26.3705 18.004 24.4523C19.4314 22.2782 21.084 20.2521 22.962 18.3738C24.8426 16.4929 26.8714 14.838 29.0486 13.4091C30.9638 12.1521 32.9938 11.07 35.1385 10.1627C37.2502 9.26941 39.4066 8.57492 41.6078 8.07924C44.3519 7.46131 47.1656 7.15234 50.0488 7.15234C52.9322 7.15234 55.746 7.46134 58.4902 8.07932C60.6913 8.575 62.8476 9.26946 64.9592 10.1627C67.1037 11.0699 69.1334 12.1519 71.0485 13.4088C73.2259 14.8378 75.2549 16.4928 77.1357 18.3738C79.013 20.2514 80.6652 22.2768 82.0922 24.4501C83.3521 26.3689 84.4366 28.403 85.3455 30.5523C86.2379 32.6622 86.9318 34.8169 87.4273 37.0163ZM16.4082 37.9048C15.8574 40.3632 15.582 42.8833 15.582 45.4651C15.582 48.047 15.8574 50.5672 16.4083 53.0257C16.8548 55.0189 17.4824 56.9714 18.291 58.8835C19.1115 60.8237 20.091 62.6596 21.2292 64.3909C22.5105 66.3398 23.9932 68.1563 25.6771 69.8405C27.3632 71.5269 29.182 73.0114 31.1335 74.2941C32.8624 75.4304 34.6953 76.4083 36.6324 77.2277C38.5455 78.037 40.4992 78.665 42.4935 79.1117C44.9503 79.662 47.4687 79.9371 50.0488 79.9371C52.6287 79.9371 55.1469 79.662 57.6036 79.1118C59.5981 78.6651 61.5519 78.037 63.4652 77.2277C65.4017 76.4085 67.2341 75.431 68.9625 74.2951C70.9146 73.0122 72.734 71.5273 74.4206 69.8404C76.1043 68.1565 77.5867 66.3403 78.8679 64.3917C80.0064 62.6601 80.986 60.824 81.8067 58.8834C82.6151 56.9716 83.2427 55.0194 83.6892 53.0265C84.2402 50.5678 84.5156 48.0473 84.5156 45.465C84.5156 42.883 84.2402 40.3627 83.6893 37.9041C83.2427 35.9111 82.6152 33.9586 81.8067 32.0467C80.9862 30.1067 80.0069 28.2711 78.8688 26.5399C77.5874 24.5908 76.1047 22.7741 74.4206 21.0897C72.7345 19.4034 70.9157 17.9188 68.9642 16.6362C67.2354 15.4999 65.4023 14.522 63.4652 13.7025C61.552 12.8931 59.5981 12.2651 57.6036 11.8184C55.147 11.2682 52.6287 10.9931 50.0488 10.9931L49.0488 10.9931L49.0488 11.007C46.8172 11.0691 44.6322 11.3396 42.4939 11.8185C40.4995 12.2652 38.5456 12.8932 36.6324 13.7026C34.6955 14.522 32.8626 15.4998 31.1339 16.636C29.1823 17.9187 27.3633 19.4033 25.6771 21.0898C23.993 22.7742 22.5103 24.5908 21.2289 26.5399C20.0908 28.2711 19.1115 30.1068 18.291 32.0468C17.4824 33.959 16.8548 35.9116 16.4082 37.9048ZM50.0488 11.9932C31.5656 11.9932 16.582 26.9791 16.582 45.4651C16.582 63.9513 31.5656 78.9371 50.0488 78.9371C68.532 78.9371 83.5156 63.9512 83.5156 45.465C83.5156 27.3136 69.0695 12.5366 51.0488 12.0077C50.7167 11.998 50.3833 11.9931 50.0488 11.9932ZM57.4933 37.3234L53.0933 28.4065C52.9413 28.0985 52.7399 27.8175 52.497 27.5746C52.2541 27.3316 51.9731 27.1302 51.6651 26.9781C50.1077 26.2094 48.2222 26.8489 47.4536 28.4065L43.0533 37.3233L33.2146 38.7533C32.8747 38.8027 32.5452 38.9075 32.2392 39.0634C31.9332 39.2193 31.6548 39.4244 31.415 39.6703L31.36 39.7282C30.2039 40.9752 30.2475 42.9239 31.4719 44.1177L38.5913 51.0583L36.9107 60.8592C36.8527 61.1977 36.8505 61.5435 36.9042 61.8828C36.9579 62.2221 37.0668 62.5502 37.2267 62.8543L37.2619 62.9197C38.0891 64.4084 39.958 64.9713 41.4732 64.1746L50.2734 59.5474L59.0736 64.1747C59.3776 64.3345 59.7058 64.4435 60.045 64.4972C60.3842 64.5509 60.7299 64.5487 61.0685 64.4906L61.1385 64.4779C62.8113 64.1525 63.9257 62.5478 63.6361 60.8593L61.9554 51.0584L69.0749 44.1178C69.3209 43.878 69.5259 43.5995 69.6818 43.2934C69.8378 42.9874 69.9425 42.6578 69.9919 42.3179L70.0012 42.2483C70.2094 40.556 69.0276 38.9997 67.3322 38.7533L57.4933 37.3234ZM50.4146 27.6513C50.6876 27.6692 50.9569 27.7437 51.2225 27.8748C51.3279 27.9268 51.4277 27.9866 51.5219 28.0541C51.6168 28.1221 51.7062 28.1979 51.7898 28.2816C51.8732 28.3649 51.9487 28.4539 52.0165 28.5484C52.0843 28.643 52.1443 28.7432 52.1965 28.849L56.8291 38.2374L67.1884 39.7429C67.4773 39.7849 67.7383 39.8745 67.9712 40.0116C68.2038 40.1486 68.4085 40.333 68.5853 40.5649C68.7629 40.7979 68.887 41.0454 68.9573 41.3073C69.0269 41.5662 69.044 41.8392 69.0087 42.1262L69.0007 42.1857C68.9946 42.2274 68.9873 42.2688 68.9787 42.31C68.9407 42.4916 68.8781 42.6681 68.7908 42.8395C68.7372 42.9447 68.6758 43.0443 68.6067 43.1381C68.5378 43.2316 68.4612 43.3195 68.3768 43.4017L60.8809 50.7093L62.6505 61.0283C62.6999 61.3162 62.6953 61.5921 62.6369 61.8561C62.5786 62.1196 62.4665 62.3713 62.3007 62.611C62.1338 62.8523 61.9366 63.0469 61.7091 63.1949C61.4847 63.3407 61.2309 63.4412 60.9475 63.4963L60.89 63.5067C60.8344 63.5162 60.7786 63.5234 60.7226 63.5284C60.5508 63.5436 60.3771 63.5373 60.2014 63.5095C60.085 63.4911 59.9715 63.4635 59.8611 63.4269C59.7507 63.3902 59.6433 63.3445 59.539 63.2896L50.2734 58.4175L41.0078 63.2895C40.7496 63.4253 40.486 63.5062 40.2171 63.5322C39.9487 63.5582 39.675 63.5295 39.396 63.4461C39.1154 63.3622 38.8697 63.2351 38.6588 63.0649C38.4505 62.8967 38.2763 62.6864 38.136 62.434L38.107 62.38C38.0832 62.3346 38.0611 62.2884 38.0407 62.2415C37.9701 62.0789 37.9205 61.9072 37.8919 61.7264C37.8734 61.6099 37.8646 61.4934 37.8653 61.377C37.8661 61.2607 37.8764 61.1444 37.8964 61.0282L39.6658 50.7092L32.1699 43.4016C31.9613 43.1983 31.8031 42.9729 31.6953 42.7257C31.5875 42.4785 31.5301 42.2094 31.5229 41.9184C31.5158 41.6255 31.5604 41.3524 31.657 41.099C31.7521 40.8495 31.8976 40.6192 32.0933 40.4081L32.1396 40.3595C32.167 40.3314 32.1952 40.3041 32.2241 40.2777C32.363 40.1507 32.5193 40.043 32.6932 39.9544C32.7984 39.9008 32.9065 39.8564 33.0175 39.8211C33.1282 39.7859 33.2419 39.7599 33.3584 39.7429L43.7174 38.2373L48.3504 28.8491C48.4815 28.5833 48.6501 28.3601 48.856 28.1797C49.0617 27.9996 49.3046 27.862 49.5848 27.767C49.8651 27.6719 50.1417 27.6333 50.4146 27.6513ZM46.9316 42.6619L40.7057 43.5668L39.459 43.7479L40.361 44.6274L44.8662 49.0194L43.8025 55.2213L43.5896 56.4631L44.7047 55.8767L50.2734 52.9487L55.842 55.8767L56.9571 56.4631L56.7442 55.2213L55.6808 49.0195L60.1857 44.6274L61.0877 43.748L59.8411 43.5668L53.6153 42.6619L50.831 37.0194L50.2734 35.8895L49.7159 37.0194L46.9316 42.6619ZM54.2794 41.7479L63.2363 43.0499L56.7552 49.3686L58.2852 58.2912L50.2734 54.0785L42.2614 58.2912L43.7917 49.3685L37.3102 43.0497L46.2675 41.7479L50.2734 33.6296L54.2794 41.7479ZM59.0863 82.7057L59.044 84.6384L73.1439 88.7087C73.485 88.8072 73.8185 88.8382 74.1445 88.8017C74.4707 88.7652 74.7894 88.6611 75.1004 88.4893C75.4114 88.3177 75.6692 88.1037 75.8739 87.8473C76.0786 87.5908 76.2302 87.2919 76.3288 86.9506C76.3514 86.8724 76.3702 86.7933 76.3853 86.7136C76.4073 86.5965 76.4212 86.4779 76.4268 86.3577L76.4274 86.3465L76.4297 86.2491L76.4306 73.3268L74.7843 74.7207C72.3633 76.7705 69.7728 78.4773 67.0128 79.8412C64.51 81.078 61.8678 82.0328 59.0863 82.7057ZM24.1165 75.8586L24.1172 86.2373C24.1172 86.5924 24.18 86.9216 24.3055 87.2247C24.4311 87.5279 24.6194 87.805 24.8705 88.0562C25.1217 88.3073 25.3988 88.4957 25.702 88.6213C26.0051 88.7469 26.3343 88.8097 26.6894 88.8097C26.7891 88.8097 26.888 88.8039 26.9863 88.7925C27.0871 88.7808 27.1872 88.7631 27.2865 88.7393L27.2976 88.7367L27.3915 88.712L41.2996 84.697L41.2511 82.7627C38.5196 82.1208 35.9193 81.206 33.4503 80.0183C30.7239 78.7068 28.1576 77.0627 25.7513 75.0859L24.1165 73.7429L24.1165 75.8586ZM61.194 84.2182L59.3214 83.6776C59.9503 83.5255 60.5734 83.3582 61.1901 83.1763C66.0648 81.7379 70.5452 79.3799 74.4304 76.3029C74.7683 76.0353 75.1017 75.7622 75.4305 75.4839L75.4304 76.7834L75.4297 86.2372L75.4279 86.3108C75.4222 86.4335 75.4021 86.5552 75.368 86.6733C75.1271 87.5077 74.2556 87.9889 73.4213 87.7479L61.194 84.2182ZM39.1309 83.2414C39.7551 83.4215 40.3857 83.5866 41.0223 83.7362L39.1302 84.2824L27.1256 87.7479L27.0543 87.7667C26.9349 87.7952 26.8124 87.8097 26.6894 87.8097C25.8211 87.8097 25.1172 87.1057 25.1172 86.2372L25.1166 77.1427L25.1165 75.8586C25.4454 76.1288 25.7788 76.3938 26.1166 76.6534C29.9565 79.6053 34.357 81.8637 39.1309 83.2414Z" fill="rgb(0,102,255)" fill-rule="evenodd" />
</svg>
